<svg width="219" height="87" viewBox="0 0 219 87" fill="none" xmlns="http://www.w3.org/2000/svg">
<path d="M133.949 11.4728L130.141 12.815C129.669 12.9963 129.379 13.4679 129.379 13.9757V18.0748C127.493 17.0591 125.606 16.261 123.575 15.5718H123.502C118.968 13.8669 114.107 13.0326 108.993 13.0326C103.878 13.0326 98.9808 13.9032 94.3739 15.5718C92.4151 16.261 90.6014 17.0953 88.7514 18.0385V13.6855C88.7514 13.214 88.4612 12.7424 88.0622 12.5973L84.5798 11.1826C83.6004 10.7836 83.6367 9.26005 84.6524 8.8973L109.464 0.155142C110.153 -0.0625054 110.951 -0.0625055 111.604 0.227691L133.986 9.36887C134.929 9.73162 134.893 11.1463 133.949 11.4365V11.4728Z" fill="white"/>
<path d="M129.343 22.1379V30.8437C127.456 29.8281 125.57 29.03 123.539 28.3408H123.466C118.932 26.6359 114.071 25.8016 108.956 25.8016C103.842 25.8016 98.9446 26.6722 94.3378 28.3408C92.3789 29.03 90.5652 29.8643 88.7152 30.8075V22.1016C90.5289 21.1585 92.3789 20.3241 94.3378 19.6349C98.9446 18.0026 103.878 17.0957 108.956 17.0957C114.035 17.0957 118.932 17.93 123.466 19.6349H123.539C125.57 20.3241 127.456 21.1584 129.343 22.1741V22.1379Z" fill="white"/>
<path d="M29.5304 65.9074C27.7917 65.9074 26.2524 65.5369 24.9127 64.7673C23.573 63.9976 22.5183 62.943 21.7487 61.6318C20.9791 60.2921 20.6086 58.7528 20.6086 57.0426C20.6086 55.3323 20.9791 53.7646 21.7487 52.4534C22.5183 51.1137 23.573 50.059 24.9127 49.3179C26.2524 48.5483 27.7917 48.1777 29.5304 48.1777C31.7252 48.1777 33.578 48.7478 35.0603 49.888C36.571 51.0282 37.5116 52.5959 37.9107 54.6197H33.065C32.8654 53.8501 32.4379 53.223 31.8108 52.7954C31.1837 52.3394 30.414 52.1398 29.5304 52.1398C28.7608 52.1398 28.0482 52.3394 27.4211 52.7384C26.794 53.1375 26.2809 53.7076 25.9104 54.4487C25.5398 55.1898 25.3688 56.0734 25.3688 57.0996C25.3688 57.8692 25.4828 58.5533 25.6823 59.1804C25.9104 59.779 26.1954 60.2921 26.566 60.7481C26.9365 61.1757 27.3926 61.5178 27.8772 61.7458C28.3617 61.9738 28.9318 62.0878 29.5304 62.0878C30.129 62.0878 30.6706 62.0023 31.1267 61.8028C31.6112 61.6033 32.0103 61.3182 32.3523 60.9477C32.6944 60.5771 32.9224 60.121 33.065 59.608H37.9107C37.5116 61.5748 36.571 63.1425 35.0603 64.2827C33.5495 65.4514 31.6967 66.0214 29.5304 66.0214V65.9074Z" fill="white"/>
<path d="M46.0913 65.9068C44.6661 65.9068 43.4689 65.6788 42.5283 65.2227C41.5876 64.7666 40.875 64.1395 40.419 63.3699C39.9629 62.6003 39.7349 61.7452 39.7349 60.8045C39.7349 59.7499 39.9914 58.8377 40.533 58.0396C41.0746 57.2415 41.8727 56.6429 42.9844 56.1868C44.0675 55.7308 45.4642 55.5027 47.1175 55.5027H51.3931C51.3931 54.6761 51.2791 53.992 51.0226 53.4789C50.766 52.9659 50.424 52.5383 49.9394 52.2817C49.4548 52.0252 48.8277 51.8827 48.0866 51.8827C47.203 51.8827 46.4334 52.0822 45.8063 52.4528C45.1792 52.8518 44.7801 53.4219 44.6376 54.22H40.1624C40.3049 52.9659 40.7325 51.8827 41.4166 50.9705C42.1292 50.0584 43.0699 49.3458 44.21 48.8612C45.3787 48.3482 46.6614 48.1201 48.0866 48.1201C49.7114 48.1201 51.1081 48.3767 52.3053 48.9182C53.5025 49.4598 54.4146 50.2294 55.0702 51.2841C55.7258 52.3103 56.0393 53.5929 56.0393 55.0752V65.5078H52.1342L51.6212 62.8854C51.3931 63.3414 51.1081 63.7405 50.7375 64.111C50.3955 64.4816 49.9679 64.7951 49.5118 65.0802C49.0558 65.3652 48.5427 65.5648 47.9726 65.7073C47.4025 65.8498 46.7754 65.9353 46.0913 65.9353V65.9068ZM47.1745 62.3438C47.8016 62.3438 48.3432 62.2298 48.7992 62.0302C49.2553 61.8022 49.6544 61.5171 49.9964 61.1466C50.3385 60.776 50.595 60.3485 50.7945 59.8924C50.9941 59.4078 51.1081 58.8948 51.1936 58.3532H47.6306C46.918 58.3532 46.3479 58.4387 45.8918 58.6097C45.4357 58.7807 45.1222 59.0088 44.9226 59.3223C44.7231 59.6359 44.6091 59.9779 44.6091 60.4055C44.6091 60.833 44.7231 61.1751 44.9226 61.4601C45.1222 61.7452 45.4357 61.9732 45.8063 62.1157C46.2053 62.2583 46.6614 62.3438 47.1745 62.3438Z" fill="white"/>
<path d="M65.731 65.9077C64.1633 65.9077 62.7381 65.5086 61.4839 64.739C60.2297 63.9694 59.232 62.8862 58.4909 61.5465C57.7498 60.1783 57.4078 58.6676 57.4078 56.9858C57.4078 55.3041 57.7783 53.7648 58.4909 52.4251C59.232 51.0854 60.2297 50.0307 61.4839 49.2896C62.7381 48.52 64.1633 48.1495 65.731 48.1495C66.9852 48.1495 68.0969 48.3775 69.0375 48.8621C69.9782 49.3181 70.7478 49.9737 71.3179 50.8004V40.8809H75.9356V65.5086H71.831L71.3179 63.1427C70.9758 63.6558 70.5483 64.1119 70.0352 64.5395C69.5221 64.967 68.9235 65.3091 68.2109 65.5371C67.4983 65.7936 66.6717 65.9077 65.7595 65.9077H65.731ZM66.7572 61.86C67.6693 61.86 68.4674 61.6605 69.1801 61.233C69.8927 60.8054 70.4343 60.2353 70.8333 59.4942C71.2324 58.7531 71.4319 57.9264 71.4319 56.9858C71.4319 56.0452 71.2324 55.19 70.8333 54.4489C70.4343 53.7078 69.8927 53.1377 69.1801 52.7387C68.4674 52.3396 67.6693 52.1116 66.7572 52.1116C65.8451 52.1116 65.0754 52.3111 64.3343 52.7387C63.5932 53.1662 63.0516 53.7078 62.6811 54.4489C62.282 55.19 62.111 56.0167 62.111 56.9573C62.111 57.8979 62.3105 58.7531 62.6811 59.4942C63.0801 60.2353 63.6217 60.8054 64.3343 61.233C65.0469 61.6605 65.8451 61.86 66.7572 61.86Z" fill="white"/>
<path d="M96.3733 65.5078V48.5477H100.449L100.82 50.828C101.362 49.9729 102.103 49.3173 102.986 48.8327C103.898 48.3482 104.925 48.1201 106.122 48.1201C106.977 48.1201 107.775 48.2341 108.459 48.4337C109.143 48.6617 109.77 48.9752 110.312 49.4313C110.853 49.8874 111.31 50.429 111.652 51.0846C112.279 50.1724 113.134 49.4598 114.16 48.9182C115.186 48.3767 116.326 48.1201 117.552 48.1201C119.034 48.1201 120.288 48.4337 121.315 49.0323C122.341 49.6308 123.11 50.5145 123.652 51.6832C124.165 52.8518 124.45 54.2771 124.45 55.9873V65.5078H119.861V56.4149C119.861 54.9897 119.604 53.9065 119.063 53.1654C118.521 52.4243 117.695 52.0252 116.554 52.0252C115.785 52.0252 115.101 52.2247 114.531 52.5953C113.96 52.9659 113.504 53.5074 113.191 54.1915C112.877 54.8756 112.706 55.7308 112.706 56.7284V65.4793H108.117V56.3864C108.117 54.9612 107.832 53.878 107.29 53.1369C106.749 52.3958 105.865 51.9967 104.697 51.9967C103.955 51.9967 103.328 52.1962 102.758 52.5668C102.188 52.9373 101.761 53.4789 101.447 54.163C101.134 54.8471 100.962 55.7023 100.962 56.6999V65.4507H96.3448L96.3733 65.5078Z" fill="white"/>
<path d="M126.018 65.5079V48.5479H130.635V65.5079H126.018Z" fill="white"/>
<path d="M131.177 43.4748C131.177 44.2159 130.92 44.843 130.379 45.3275C129.837 45.8121 129.153 46.0686 128.298 46.0686C127.5 46.0686 126.816 45.8121 126.274 45.3275C125.733 44.843 125.476 44.2159 125.476 43.4748C125.476 42.7336 125.733 42.1065 126.274 41.5935C126.816 41.1089 127.5 40.8809 128.298 40.8809C129.153 40.8809 129.837 41.1089 130.379 41.5935C130.92 42.1065 131.177 42.7051 131.177 43.4748Z" fill="white"/>
<path d="M138.873 65.9068C137.448 65.9068 136.251 65.6788 135.31 65.2227C134.369 64.7666 133.657 64.1395 133.201 63.3699C132.745 62.6003 132.517 61.7452 132.517 60.8045C132.517 59.7499 132.773 58.8377 133.315 58.0396C133.856 57.2415 134.654 56.6429 135.766 56.1868C136.849 55.7308 138.246 55.5027 139.899 55.5027H144.175C144.175 54.6761 144.061 53.992 143.804 53.4789C143.548 52.9659 143.206 52.5383 142.721 52.2817C142.237 52.0252 141.609 51.8827 140.868 51.8827C139.985 51.8827 139.215 52.0822 138.588 52.4528C137.961 52.8518 137.562 53.4219 137.419 54.22H132.944C133.087 52.9659 133.514 51.8827 134.198 50.9705C134.911 50.0584 135.852 49.3458 136.992 48.8612C138.16 48.3482 139.443 48.1201 140.868 48.1201C142.493 48.1201 143.89 48.3767 145.087 48.9182C146.284 49.4598 147.196 50.2294 147.852 51.2841C148.508 52.3103 148.821 53.5929 148.821 55.0752V65.5078H144.916L144.403 62.8854C144.175 63.3414 143.89 63.7405 143.519 64.111C143.177 64.4816 142.75 64.7951 142.294 65.0802C141.838 65.3652 141.324 65.5648 140.754 65.7073C140.184 65.8498 139.557 65.9353 138.873 65.9353V65.9068ZM139.956 62.3438C140.583 62.3438 141.125 62.2298 141.581 62.0302C142.037 61.8022 142.436 61.5171 142.778 61.1466C143.12 60.776 143.377 60.3485 143.576 59.8924C143.776 59.4078 143.89 58.8948 143.975 58.3532H140.412C139.7 58.3532 139.13 58.4387 138.674 58.6097C138.217 58.7807 137.904 59.0088 137.704 59.3223C137.505 59.6359 137.391 59.9779 137.391 60.4055C137.391 60.833 137.505 61.1751 137.704 61.4601C137.904 61.7452 138.217 61.9732 138.588 62.1157C138.987 62.2583 139.443 62.3438 139.956 62.3438Z" fill="white"/>
<path d="M168.09 65.5086V40.8809H172.708V65.5086H168.09Z" fill="white"/>
<path d="M183.539 65.908C181.915 65.908 180.461 65.5374 179.15 64.7678C177.838 63.9982 176.784 62.972 176.014 61.6323C175.245 60.2926 174.845 58.7534 174.845 57.0146C174.845 55.2759 175.245 53.7081 176.014 52.3684C176.784 51.0287 177.838 50.0026 179.15 49.2329C180.461 48.4918 181.943 48.0928 183.568 48.0928C185.193 48.0928 186.703 48.4633 188.014 49.2329C189.326 49.9741 190.38 51.0287 191.15 52.3684C191.92 53.7081 192.29 55.2474 192.29 57.0146C192.29 58.7819 191.891 60.3211 191.121 61.6608C190.352 63.0005 189.297 64.0267 187.986 64.7963C186.675 65.5659 185.193 65.9365 183.511 65.9365L183.539 65.908ZM183.568 61.9174C184.309 61.9174 184.965 61.7463 185.563 61.3758C186.162 61.0052 186.646 60.4637 187.045 59.7225C187.416 58.9814 187.615 58.0978 187.615 57.0146C187.615 55.9315 187.444 55.0193 187.074 54.3067C186.703 53.5941 186.219 53.0525 185.62 52.682C185.022 52.3114 184.337 52.1404 183.625 52.1404C182.912 52.1404 182.228 52.3114 181.601 52.682C180.974 53.0525 180.489 53.5941 180.119 54.3067C179.748 55.0193 179.577 55.9315 179.577 57.0146C179.577 58.0978 179.748 58.9814 180.119 59.7225C180.489 60.4637 180.974 61.0052 181.573 61.3758C182.171 61.7463 182.855 61.9174 183.568 61.9174Z" fill="white"/>
<path d="M196.879 65.5079L191.92 48.5479H196.48L199.901 62.857H198.732L202.666 48.5479H207.796L211.73 62.8H210.561L213.982 48.5479H218.543L213.583 65.5079H208.794L204.632 50.7997H205.887L201.668 65.5079H196.879Z" fill="white"/>
<path d="M150.617 51.6836V65.5082H155.234V55.3036H164.042V51.6836H150.617Z" fill="white"/>
<path d="M150.56 47.5509V42.7906C152.897 41.565 155.548 40.8809 158.37 40.8809C161.192 40.8809 163.871 41.565 166.237 42.8192V47.5794C163.871 46.3252 161.22 45.6411 158.37 45.6411C155.519 45.6411 152.897 46.3252 150.56 47.5509Z" fill="white"/>
<path d="M86.0545 65.9068C84.3157 65.9068 82.7765 65.5363 81.4653 64.8237C80.1256 64.0825 79.0994 63.0564 78.3298 61.7452C77.5887 60.434 77.1896 58.8948 77.1896 57.1845C77.1896 55.4742 77.5602 53.8495 78.3013 52.4813C79.0424 51.1131 80.0685 50.0584 81.4082 49.2888C82.7479 48.5192 84.2872 48.1201 86.083 48.1201C87.7647 48.1201 89.2469 48.4907 90.5581 49.2033C91.8408 49.9444 92.8385 50.942 93.5796 52.1962C94.2922 53.4504 94.6628 54.9041 94.6628 56.5004V57.27C94.6628 57.555 94.6628 57.8401 94.6058 58.1536H80.5531V55.3032H89.9881C89.931 54.2771 89.532 53.4504 88.8194 52.7948C88.1068 52.1677 87.1946 51.8257 86.14 51.8257C85.3418 51.8257 84.6007 51.9967 83.9451 52.3673C83.2895 52.7093 82.7479 53.2509 82.3774 53.9635C81.9783 54.6761 81.8073 55.5597 81.8073 56.6429V57.6406C81.8073 58.5527 81.9783 59.3508 82.3489 60.0349C82.7194 60.719 83.2325 61.2321 83.8596 61.6027C84.5152 61.9732 85.2563 62.1442 86.0545 62.1442C86.8526 62.1442 87.5937 61.9447 88.1638 61.5742C88.7339 61.2036 89.1614 60.719 89.475 60.1204H94.2067C93.8646 61.2036 93.3231 62.1727 92.5534 63.0564C91.7838 63.94 90.8717 64.6241 89.7885 65.1372C88.7053 65.6503 87.4512 65.9068 86.083 65.9068H86.0545Z" fill="white"/>
<path d="M89.4466 60.1221H89.7316C89.7316 60.1221 89.5036 60.1791 89.4181 60.1791C89.4181 60.1791 89.4466 60.1791 89.4466 60.1221Z" fill="white"/>
<path d="M17.4161 56.9568C16.8745 56.7003 16.3044 56.4722 15.7343 56.2727H15.7058C14.5656 55.8451 13.3684 55.5316 12.1142 55.3605L9.14979 46.8378L6.18535 55.3605C4.93116 55.5601 3.70547 55.8451 2.53679 56.2727C1.99521 56.4722 1.48213 56.6717 0.969055 56.9283L6.5559 41.5645H11.8007L17.4161 56.9568Z" fill="white"/>
<path d="M0 65.4508V59.8925C0.826626 59.4649 1.65325 59.0943 2.53688 58.7808C4.6177 58.0397 6.84104 57.6406 9.14989 57.6406C11.4587 57.6406 13.6536 58.0112 15.7059 58.7808H15.7344C16.6465 59.0943 17.5017 59.4649 18.3568 59.921V65.5078C18.3568 65.5078 18.2143 65.4223 18.1288 65.3938C17.6157 65.1088 17.0741 64.8807 16.5325 64.6812C16.1334 64.4817 15.7344 64.3391 15.3353 64.2251C14.8793 64.0541 14.4232 63.9401 13.9671 63.8261H13.9386C12.3994 63.427 10.8031 63.2275 9.14989 63.2275C7.49664 63.2275 5.9574 63.427 4.44667 63.7691C3.9336 63.9116 3.42052 64.0541 2.90744 64.2251C2.6509 64.3106 2.39436 64.3962 2.13782 64.5102C1.48223 64.7382 0.85513 65.0232 0.228034 65.3368C0.142521 65.3653 0.085513 65.4223 0 65.4508Z" fill="white"/>
</svg>
