<svg width="185" height="18" viewBox="0 0 185 18" fill="none" xmlns="http://www.w3.org/2000/svg">
<path d="M52.3728 17.4403C51.1611 17.4403 50.0885 17.182 49.1549 16.6457C48.2213 16.1094 47.4863 15.3745 46.95 14.4607C46.4137 13.5272 46.1555 12.4545 46.1555 11.2627C46.1555 10.0709 46.4137 8.97842 46.95 8.0647C47.4863 7.13112 48.2213 6.39617 49.1549 5.87971C50.0885 5.3434 51.1611 5.08517 52.3728 5.08517C53.9023 5.08517 55.1934 5.48244 56.2263 6.27698C57.279 7.07152 57.9345 8.16402 58.2126 9.57433H54.8358C54.6968 9.03801 54.3988 8.60101 53.9618 8.30306C53.5248 7.98525 52.9885 7.8462 52.3728 7.8462C51.8365 7.8462 51.3399 7.98525 50.9029 8.26333C50.4659 8.54142 50.1083 8.93869 49.8501 9.45515C49.5919 9.9716 49.4727 10.5874 49.4727 11.3025C49.4727 11.8388 49.5521 12.3155 49.6912 12.7525C49.8501 13.1696 50.0487 13.5272 50.307 13.845C50.5652 14.1429 50.883 14.3813 51.2207 14.5402C51.5584 14.6991 51.9556 14.7786 52.3728 14.7786C52.7899 14.7786 53.1673 14.719 53.4851 14.5799C53.8228 14.4409 54.1009 14.2422 54.3393 13.984C54.5776 13.7258 54.7365 13.408 54.8358 13.0504H58.2126C57.9345 14.421 57.279 15.5135 56.2263 16.3081C55.1735 17.1225 53.8824 17.5197 52.3728 17.5197V17.4403Z" fill="#0A2540"/>
<path d="M63.9134 17.4402C62.9202 17.4402 62.0859 17.2813 61.4304 16.9635C60.775 16.6457 60.2784 16.2087 59.9605 15.6724C59.6427 15.1361 59.4838 14.5401 59.4838 13.8847C59.4838 13.1497 59.6626 12.5141 60.04 11.9579C60.4174 11.4017 60.9736 10.9846 61.7483 10.6668C62.5031 10.3489 63.4764 10.19 64.6285 10.19H67.608C67.608 9.614 67.5285 9.13728 67.3498 8.77973C67.171 8.42219 66.9326 8.12424 66.595 7.94547C66.2573 7.76669 65.8203 7.66738 65.3038 7.66738C64.6881 7.66738 64.1518 7.80642 63.7148 8.06465C63.2778 8.34274 62.9997 8.74001 62.9003 9.29618H59.7818C59.8811 8.42219 60.179 7.66738 60.6558 7.03175C61.1524 6.39611 61.8079 5.89953 62.6024 5.56185C63.4168 5.2043 64.3107 5.04539 65.3038 5.04539C66.4361 5.04539 67.4094 5.22417 68.2436 5.60157C69.0779 5.97898 69.7135 6.51529 70.1704 7.25024C70.6273 7.96533 70.8457 8.85919 70.8457 9.89209V17.1621H68.1244L67.7669 15.3347C67.608 15.6525 67.4094 15.9306 67.1511 16.1888C66.9128 16.447 66.6148 16.6655 66.297 16.8642C65.9792 17.0628 65.6216 17.2019 65.2244 17.3012C64.8271 17.4005 64.3901 17.4601 63.9134 17.4601V17.4402ZM64.6682 14.9573C65.1052 14.9573 65.4826 14.8778 65.8004 14.7388C66.1182 14.5799 66.3963 14.3812 66.6347 14.123C66.873 13.8648 67.0518 13.5668 67.1909 13.249C67.3299 12.9113 67.4094 12.5538 67.469 12.1764H64.986C64.4894 12.1764 64.0922 12.236 63.7743 12.3552C63.4565 12.4743 63.238 12.6333 63.099 12.8518C62.9599 13.0702 62.8805 13.3086 62.8805 13.6066C62.8805 13.9045 62.9599 14.1429 63.099 14.3415C63.238 14.5401 63.4565 14.6991 63.7148 14.7984C63.9928 14.8977 64.3107 14.9573 64.6682 14.9573Z" fill="#0A2540"/>
<path d="M77.5996 17.4402C76.5071 17.4402 75.5139 17.1621 74.64 16.6257C73.766 16.0894 73.0707 15.3346 72.5543 14.401C72.0378 13.4476 71.7995 12.3948 71.7995 11.2229C71.7995 10.0509 72.0577 8.9783 72.5543 8.04472C73.0707 7.11113 73.766 6.37618 74.64 5.85973C75.5139 5.32342 76.5071 5.06519 77.5996 5.06519C78.4736 5.06519 79.2483 5.2241 79.9038 5.56178C80.5593 5.8796 81.0956 6.33646 81.4929 6.9125V0H84.7107V17.1621H81.8504L81.4929 15.5134C81.2545 15.8709 80.9565 16.1888 80.599 16.4867C80.2415 16.7847 79.8243 17.023 79.3277 17.1819C78.8311 17.3607 78.2551 17.4402 77.6195 17.4402H77.5996ZM78.3147 14.6195C78.9503 14.6195 79.5065 14.4805 80.0031 14.1825C80.4997 13.8846 80.8771 13.4873 81.1552 12.9709C81.4333 12.4544 81.5723 11.8784 81.5723 11.2229C81.5723 10.5674 81.4333 9.97148 81.1552 9.45503C80.8771 8.93858 80.4997 8.5413 80.0031 8.26322C79.5065 7.98513 78.9503 7.82622 78.3147 7.82622C77.6791 7.82622 77.1428 7.96526 76.6263 8.26322C76.1098 8.56117 75.7324 8.93858 75.4742 9.45503C75.1961 9.97148 75.0769 10.5475 75.0769 11.203C75.0769 11.8585 75.216 12.4544 75.4742 12.9709C75.7523 13.4873 76.1297 13.8846 76.6263 14.1825C77.1229 14.4805 77.6791 14.6195 78.3147 14.6195Z" fill="#0A2540"/>
<path d="M98.9529 17.1621V5.34335H101.793L102.052 6.93243C102.429 6.33652 102.945 5.87966 103.561 5.54198C104.197 5.2043 104.912 5.04539 105.746 5.04539C106.342 5.04539 106.898 5.12485 107.375 5.26389C107.852 5.4228 108.289 5.6413 108.666 5.95912C109.044 6.27693 109.361 6.65434 109.6 7.1112C110.037 6.47557 110.633 5.97898 111.348 5.60157C112.063 5.22417 112.857 5.04539 113.711 5.04539C114.744 5.04539 115.618 5.26389 116.333 5.68103C117.049 6.09816 117.585 6.71393 117.962 7.52833C118.32 8.34274 118.518 9.33591 118.518 10.5277V17.1621H115.32V10.8257C115.32 9.8325 115.142 9.07769 114.764 8.56123C114.387 8.04478 113.811 7.76669 113.016 7.76669C112.48 7.76669 112.003 7.90574 111.606 8.16396C111.209 8.42219 110.891 8.7996 110.672 9.27632C110.454 9.75304 110.335 10.3489 110.335 11.0442V17.1423H107.137V10.8058C107.137 9.81263 106.938 9.05782 106.561 8.54137C106.183 8.02492 105.567 7.74683 104.753 7.74683C104.237 7.74683 103.8 7.88588 103.402 8.1441C103.005 8.40233 102.707 8.77973 102.489 9.25646C102.27 9.73318 102.151 10.3291 102.151 11.0243V17.1224H98.933L98.9529 17.1621Z" fill="#0A2540"/>
<path d="M119.611 17.162V5.34319H122.829V17.162H119.611Z" fill="#0A2540"/>
<path d="M123.206 1.80758C123.206 2.32403 123.027 2.76103 122.65 3.09871C122.273 3.43639 121.796 3.61516 121.2 3.61516C120.644 3.61516 120.167 3.43639 119.79 3.09871C119.412 2.76103 119.233 2.32403 119.233 1.80758C119.233 1.29113 119.412 0.854131 119.79 0.496588C120.167 0.158908 120.644 0 121.2 0C121.796 0 122.273 0.158908 122.65 0.496588C123.027 0.854131 123.206 1.27126 123.206 1.80758Z" fill="#0A2540"/>
<path d="M128.569 17.4402C127.576 17.4402 126.742 17.2813 126.086 16.9635C125.431 16.6457 124.934 16.2087 124.616 15.6724C124.299 15.1361 124.14 14.5401 124.14 13.8847C124.14 13.1497 124.318 12.5141 124.696 11.9579C125.073 11.4017 125.629 10.9846 126.404 10.6668C127.159 10.3489 128.132 10.19 129.284 10.19H132.264C132.264 9.614 132.184 9.13728 132.006 8.77973C131.827 8.42219 131.588 8.12424 131.251 7.94547C130.913 7.76669 130.476 7.66738 129.96 7.66738C129.344 7.66738 128.808 7.80642 128.371 8.06465C127.934 8.34274 127.656 8.74001 127.556 9.29618H124.438C124.537 8.42219 124.835 7.66738 125.312 7.03175C125.808 6.39611 126.464 5.89953 127.258 5.56185C128.073 5.2043 128.967 5.04539 129.96 5.04539C131.092 5.04539 132.065 5.22417 132.899 5.60157C133.734 5.97898 134.369 6.51529 134.826 7.25024C135.283 7.96533 135.502 8.85919 135.502 9.89209V17.1621H132.78L132.423 15.3347C132.264 15.6525 132.065 15.9306 131.807 16.1888C131.569 16.447 131.271 16.6655 130.953 16.8642C130.635 17.0628 130.277 17.2019 129.88 17.3012C129.483 17.4005 129.046 17.4601 128.569 17.4601V17.4402ZM129.324 14.9573C129.761 14.9573 130.138 14.8778 130.456 14.7388C130.774 14.5799 131.052 14.3812 131.291 14.123C131.529 13.8648 131.708 13.5668 131.847 13.249C131.986 12.9113 132.065 12.5538 132.125 12.1764H129.642C129.145 12.1764 128.748 12.236 128.43 12.3552C128.112 12.4743 127.894 12.6333 127.755 12.8518C127.616 13.0702 127.536 13.3086 127.536 13.6066C127.536 13.9045 127.616 14.1429 127.755 14.3415C127.894 14.5401 128.112 14.6991 128.371 14.7984C128.649 14.8977 128.967 14.9573 129.324 14.9573Z" fill="#0A2540"/>
<path d="M148.929 17.1621V0H152.147V17.1621H148.929Z" fill="#0A2540"/>
<path d="M159.695 17.4402C158.563 17.4402 157.55 17.182 156.636 16.6457C155.723 16.1093 154.988 15.3943 154.451 14.4607C153.915 13.5271 153.637 12.4545 153.637 11.2428C153.637 10.0311 153.915 8.93862 154.451 8.00504C154.988 7.07145 155.723 6.35637 156.636 5.82005C157.55 5.3036 158.583 5.02551 159.715 5.02551C160.847 5.02551 161.9 5.28374 162.814 5.82005C163.728 6.3365 164.463 7.07145 164.999 8.00504C165.535 8.93862 165.793 10.0113 165.793 11.2428C165.793 12.4743 165.515 13.547 164.979 14.4805C164.443 15.4141 163.708 16.1292 162.794 16.6655C161.88 17.2018 160.847 17.4601 159.675 17.4601L159.695 17.4402ZM159.715 14.6593C160.232 14.6593 160.688 14.5401 161.106 14.2819C161.523 14.0237 161.86 13.6463 162.138 13.1298C162.397 12.6134 162.536 11.9976 162.536 11.2428C162.536 10.488 162.417 9.85234 162.158 9.35576C161.9 8.85917 161.562 8.48176 161.145 8.22354C160.728 7.96531 160.251 7.84613 159.755 7.84613C159.258 7.84613 158.782 7.96531 158.345 8.22354C157.908 8.48176 157.57 8.85917 157.312 9.35576C157.053 9.85234 156.934 10.488 156.934 11.2428C156.934 11.9976 157.053 12.6134 157.312 13.1298C157.57 13.6463 157.908 14.0237 158.325 14.2819C158.742 14.5401 159.219 14.6593 159.715 14.6593Z" fill="#0A2540"/>
<path d="M168.991 17.162L165.535 5.34319H168.713L171.097 15.3147H170.283L173.024 5.34319H176.599L179.34 15.2749H178.526L180.91 5.34319H184.088L180.631 17.162H177.294L174.394 6.9124H175.268L172.329 17.162H168.991Z" fill="#0A2540"/>
<path d="M136.753 7.52834V17.1621H139.971V10.051H146.109V7.52834H136.753Z" fill="#0A2540"/>
<path d="M136.713 4.64806V1.33085C138.342 0.476724 140.189 0 142.156 0C144.122 0 145.99 0.476724 147.638 1.35072V4.66792C145.99 3.79393 144.142 3.3172 142.156 3.3172C140.17 3.3172 138.342 3.79393 136.713 4.64806Z" fill="#09C853"/>
<path d="M91.7621 17.4402C90.5504 17.4402 89.4778 17.182 88.5641 16.6854C87.6305 16.169 86.9154 15.4539 86.3791 14.5401C85.8626 13.6264 85.5845 12.5538 85.5845 11.362C85.5845 10.1702 85.8428 9.03796 86.3592 8.08451C86.8757 7.13106 87.5908 6.39611 88.5243 5.8598C89.4579 5.32348 90.5306 5.04539 91.782 5.04539C92.9539 5.04539 93.9868 5.30362 94.9005 5.80021C95.7944 6.31666 96.4896 7.01188 97.0061 7.88588C97.5026 8.75987 97.7609 9.77291 97.7609 10.8853V11.4216C97.7609 11.6202 97.7609 11.8188 97.7211 12.0373H87.9284V10.051H94.5033C94.4635 9.33591 94.1854 8.75987 93.6889 8.30301C93.1923 7.86601 92.5566 7.62765 91.8217 7.62765C91.2655 7.62765 90.7491 7.74683 90.2922 8.00506C89.8353 8.24342 89.4579 8.62083 89.1997 9.11741C88.9216 9.614 88.8024 10.2298 88.8024 10.9846V11.6798C88.8024 12.3154 88.9216 12.8716 89.1798 13.3483C89.4381 13.8251 89.7956 14.1826 90.2326 14.4408C90.6895 14.6991 91.2059 14.8182 91.7621 14.8182C92.3183 14.8182 92.8347 14.6792 93.232 14.421C93.6293 14.1627 93.9272 13.8251 94.1457 13.4079H97.4431C97.2047 14.1627 96.8273 14.8381 96.291 15.4539C95.7547 16.0696 95.119 16.5464 94.3642 16.9039C93.6094 17.2614 92.7354 17.4402 91.782 17.4402H91.7621Z" fill="#0A2540"/>
<path d="M94.1259 13.4079H94.3245C94.3245 13.4079 94.1656 13.4476 94.106 13.4476C94.106 13.4476 94.1259 13.4476 94.1259 13.4079Z" fill="#0A2540"/>
<path d="M43.9308 11.203C43.5534 11.0242 43.1561 10.8653 42.7588 10.7263H42.739C41.9444 10.4283 41.1102 10.2098 40.2362 10.0906L38.1704 4.15143L36.1046 10.0906C35.2306 10.2297 34.3764 10.4283 33.562 10.7263C33.1846 10.8653 32.8271 11.0043 32.4695 11.1831L36.3628 0.476685H40.0177L43.9308 11.203Z" fill="#0A2540"/>
<path d="M31.7942 17.1221V13.2487C32.3702 12.9507 32.9463 12.6925 33.562 12.474C35.0121 11.9576 36.5614 11.6795 38.1704 11.6795C39.7793 11.6795 41.3088 11.9377 42.739 12.474H42.7589C43.3945 12.6925 43.9904 12.9507 44.5863 13.2686V17.1618C44.5863 17.1618 44.487 17.1022 44.4274 17.0823C44.0698 16.8837 43.6924 16.7248 43.315 16.5858C43.0369 16.4467 42.7588 16.3474 42.4808 16.2679C42.1629 16.1488 41.8451 16.0693 41.5273 15.9899H41.5074C40.4348 15.7118 39.3225 15.5727 38.1704 15.5727C37.0183 15.5727 35.9457 15.7118 34.8929 15.9501C34.5354 16.0494 34.1778 16.1488 33.8203 16.2679C33.6415 16.3275 33.4627 16.3871 33.284 16.4666C32.8271 16.6255 32.3901 16.8241 31.9531 17.0426C31.8935 17.0625 31.8538 17.1022 31.7942 17.1221Z" fill="#09C853"/>
<path d="M27.4244 6.5549L25.3387 7.28985C25.0805 7.38917 24.9216 7.6474 24.9216 7.92549V10.1701C23.8887 9.61388 22.8557 9.17689 21.7434 8.79948H21.7037C19.2207 7.86589 16.559 7.40903 13.7583 7.40903C10.9575 7.40903 8.27594 7.88576 5.75327 8.79948C4.68064 9.17689 3.68747 9.63375 2.67443 10.1502V7.76658C2.67443 7.50835 2.51552 7.25013 2.29702 7.17067L0.390126 6.396C-0.146189 6.1775 -0.126325 5.34323 0.429853 5.14459L14.0165 0.357491C14.3939 0.23831 14.8309 0.23831 15.1884 0.397218L27.4442 5.40282C27.9607 5.60146 27.9408 6.37613 27.4244 6.53504V6.5549Z" fill="#0A2540"/>
<path d="M24.9018 12.395V17.1622C23.8689 16.6061 22.836 16.1691 21.7236 15.7917H21.6839C19.201 14.8581 16.5393 14.4012 13.7385 14.4012C10.9378 14.4012 8.25619 14.8779 5.73352 15.7917C4.66089 16.1691 3.66772 16.6259 2.65468 17.1424V12.3751C3.64785 11.8587 4.66089 11.4018 5.73352 11.0244C8.25619 10.1306 10.9576 9.63397 13.7385 9.63397C16.5194 9.63397 19.201 10.0908 21.6839 11.0244H21.7236C22.836 11.4018 23.8689 11.8587 24.9018 12.4149V12.395Z" fill="#09C853"/>
</svg>
