<svg width="28" height="17" viewBox="0 0 28 17" fill="none" xmlns="http://www.w3.org/2000/svg">
<path d="M27.4244 6.28237L25.3387 7.01732C25.0805 7.11663 24.9216 7.37486 24.9216 7.65295V9.89752C23.8887 9.34134 22.8557 8.90435 21.7434 8.52694H21.7037C19.2207 7.59336 16.559 7.1365 13.7583 7.1365C10.9575 7.1365 8.27594 7.61322 5.75327 8.52694C4.68064 8.90435 3.68747 9.36121 2.67443 9.87766V7.49404C2.67443 7.23581 2.51552 6.97759 2.29702 6.89813L0.390126 6.12346C-0.146189 5.90496 -0.126325 5.07069 0.429853 4.87206L14.0165 0.0849538C14.3939 -0.0342272 14.8309 -0.0342272 15.1884 0.124681L27.4442 5.13028C27.9607 5.32892 27.9408 6.10359 27.4244 6.2625V6.28237Z" fill="#0A2540"/>
<path d="M24.9018 12.1225V16.8897C23.8689 16.3335 22.836 15.8965 21.7236 15.5191H21.6839C19.201 14.5855 16.5393 14.1287 13.7385 14.1287C10.9378 14.1287 8.25619 14.6054 5.73352 15.5191C4.66089 15.8965 3.66772 16.3534 2.65468 16.8698V12.1026C3.64785 11.5861 4.66089 11.1293 5.73352 10.7519C8.25619 9.85802 10.9576 9.36143 13.7385 9.36143C16.5194 9.36143 19.201 9.8183 21.6839 10.7519H21.7236C22.836 11.1293 23.8689 11.5861 24.9018 12.1423V12.1225Z" fill="#09C853"/>
</svg>
